<?xml version="1.0" encoding="UTF-8" standalone="no"?>
<!DOCTYPE svg PUBLIC "-//W3C//DTD SVG 1.1//EN"
 "http://www.w3.org/Graphics/SVG/1.1/DTD/svg11.dtd">
<!-- Generated by graphviz version 2.43.0 (0)
 -->
<!-- Title: islamicmaps Pages: 1 -->
<svg width="1862pt" height="941pt"
 viewBox="0.00 0.00 1861.60 940.60" xmlns="http://www.w3.org/2000/svg" xmlns:xlink="http://www.w3.org/1999/xlink">
<g id="graph0" class="graph" transform="scale(1 1) rotate(0) translate(28.8 911.8)">
<title>islamicmaps</title>
<polygon fill="white" stroke="transparent" points="-28.8,28.8 -28.8,-911.8 1832.8,-911.8 1832.8,28.8 -28.8,28.8"/>
<text text-anchor="start" x="674" y="-864" font-family="Helvetica,sans-Serif" font-size="14.00"> &#160;&#160;&#160;&#160;&#160;&#160;&#160;&#160;</text>
<text text-anchor="start" x="715" y="-864" font-family="Helvetica,sans-Serif" font-weight="bold" font-size="20.00">islamicmaps.org — AWS architecture</text>
<text text-anchor="start" x="687.5" y="-848.8" font-family="Helvetica,sans-Serif" font-size="14.00"> &#160;&#160;&#160;&#160;&#160;&#160;&#160;&#160;</text>
<text text-anchor="start" x="728.5" y="-848.8" font-family="Helvetica,sans-Serif" font-size="11.00">static&#45;first · serverless · platform&#45;agnostic · built for low/no bandwidth</text>
<g id="clust1" class="cluster">
<title>cluster_clients</title>
<path fill="#e3f2fd" stroke="#90caf9" d="M20,-726.5C20,-726.5 385,-726.5 385,-726.5 391,-726.5 397,-732.5 397,-738.5 397,-738.5 397,-796.5 397,-796.5 397,-802.5 391,-808.5 385,-808.5 385,-808.5 20,-808.5 20,-808.5 14,-808.5 8,-802.5 8,-796.5 8,-796.5 8,-738.5 8,-738.5 8,-732.5 14,-726.5 20,-726.5"/>
<text text-anchor="start" x="179" y="-795.9" font-family="Helvetica,sans-Serif" font-weight="bold" font-size="12.00">Clients</text>
</g>
<g id="clust2" class="cluster">
<title>cluster_edge</title>
<path fill="#fff3e0" stroke="#ffcc80" d="M153,-351.5C153,-351.5 289,-351.5 289,-351.5 295,-351.5 301,-357.5 301,-363.5 301,-363.5 301,-643.5 301,-643.5 301,-649.5 295,-655.5 289,-655.5 289,-655.5 153,-655.5 153,-655.5 147,-655.5 141,-649.5 141,-643.5 141,-643.5 141,-363.5 141,-363.5 141,-357.5 147,-351.5 153,-351.5"/>
<text text-anchor="start" x="183" y="-642.9" font-family="Helvetica,sans-Serif" font-weight="bold" font-size="12.00">Edge / DNS</text>
</g>
<g id="clust3" class="cluster">
<title>cluster_static</title>
<path fill="#e8f5e9" stroke="#a5d6a7" d="M321,-347C321,-347 1313,-347 1313,-347 1319,-347 1325,-353 1325,-359 1325,-359 1325,-417 1325,-417 1325,-423 1319,-429 1313,-429 1313,-429 321,-429 321,-429 315,-429 309,-423 309,-417 309,-417 309,-359 309,-359 309,-353 315,-347 321,-347"/>
<text text-anchor="start" x="668" y="-416.4" font-family="Helvetica,sans-Serif" font-weight="bold" font-size="12.00">Static origin — S3 &#160;(read&#45;only, the hot path)</text>
</g>
<g id="clust4" class="cluster">
<title>cluster_api</title>
<path fill="#f3e5f5" stroke="#ce93d8" d="M583,-8C583,-8 980,-8 980,-8 986,-8 992,-14 992,-20 992,-20 992,-303 992,-303 992,-309 986,-315 980,-315 980,-315 583,-315 583,-315 577,-315 571,-309 571,-303 571,-303 571,-20 571,-20 571,-14 577,-8 583,-8"/>
<text text-anchor="start" x="579" y="-302.4" font-family="Helvetica,sans-Serif" font-weight="bold" font-size="12.00">Serverless API — online&#45;only (deep search, future features)</text>
</g>
<g id="clust5" class="cluster">
<title>cluster_build</title>
<path fill="#eceff1" stroke="#b0bec5" d="M1419,-347C1419,-347 1784,-347 1784,-347 1790,-347 1796,-353 1796,-359 1796,-359 1796,-648 1796,-648 1796,-654 1790,-660 1784,-660 1784,-660 1419,-660 1419,-660 1413,-660 1407,-654 1407,-648 1407,-648 1407,-359 1407,-359 1407,-353 1413,-347 1419,-347"/>
<text text-anchor="start" x="1487.5" y="-647.4" font-family="Helvetica,sans-Serif" font-weight="bold" font-size="12.00">Content build pipeline (CI, offline)</text>
</g>
<g id="clust6" class="cluster">
<title>cluster_legend</title>
<path fill="white" stroke="#bdbdbd" d="M879,-701C879,-701 1277,-701 1277,-701 1283,-701 1289,-707 1289,-713 1289,-713 1289,-821 1289,-821 1289,-827 1283,-833 1277,-833 1277,-833 879,-833 879,-833 873,-833 867,-827 867,-821 867,-821 867,-713 867,-713 867,-707 873,-701 879,-701"/>
<text text-anchor="start" x="1055.5" y="-821.2" font-family="Helvetica,sans-Serif" font-weight="bold" font-size="11.00">Legend</text>
</g>
<!-- web -->
<g id="node1" class="node">
<title>web</title>
<path fill="#bbdefb" stroke="black" stroke-width="1.2" d="M178,-779.5C178,-779.5 28,-779.5 28,-779.5 22,-779.5 16,-773.5 16,-767.5 16,-767.5 16,-746.5 16,-746.5 16,-740.5 22,-734.5 28,-734.5 28,-734.5 178,-734.5 178,-734.5 184,-734.5 190,-740.5 190,-746.5 190,-746.5 190,-767.5 190,-767.5 190,-773.5 184,-779.5 178,-779.5"/>
<text text-anchor="start" x="54.5" y="-764.7" font-family="Helvetica,sans-Serif" font-weight="bold" font-size="11.00">Web app (PWA)</text>
<text text-anchor="start" x="29" y="-754.5" font-family="Helvetica,sans-Serif" font-size="10.00">React · MapLibre GL + deck.gl</text>
<text text-anchor="start" x="41.5" y="-744.5" font-family="Helvetica,sans-Serif" font-size="10.00">installable · offline cache</text>
</g>
<!-- dns -->
<g id="node3" class="node">
<title>dns</title>
<path fill="#ffe0b2" stroke="black" stroke-width="1.2" d="M263,-626.5C263,-626.5 179,-626.5 179,-626.5 173,-626.5 167,-620.5 167,-614.5 167,-614.5 167,-602.5 167,-602.5 167,-596.5 173,-590.5 179,-590.5 179,-590.5 263,-590.5 263,-590.5 269,-590.5 275,-596.5 275,-602.5 275,-602.5 275,-614.5 275,-614.5 275,-620.5 269,-626.5 263,-626.5"/>
<text text-anchor="start" x="193.5" y="-611.2" font-family="Helvetica,sans-Serif" font-weight="bold" font-size="11.00">Route 53</text>
<text text-anchor="start" x="180" y="-601" font-family="Helvetica,sans-Serif" font-size="10.00">islamicmaps.org</text>
</g>
<!-- web&#45;&gt;dns -->
<g id="edge1" class="edge">
<title>web&#45;&gt;dns</title>
<path fill="none" stroke="#555555" stroke-width="1.2" d="M120.41,-734.38C141.79,-707.84 178,-662.89 200.64,-634.77"/>
<polygon fill="#555555" stroke="#555555" stroke-width="1.2" points="203.66,-636.61 207.2,-626.63 198.21,-632.22 203.66,-636.61"/>
<text text-anchor="middle" x="186.5" y="-670.8" font-family="Helvetica,sans-Serif" font-size="9.00">HTTPS</text>
</g>
<!-- native -->
<g id="node2" class="node">
<title>native</title>
<path fill="#e1f0fb" stroke="black" stroke-width="1.2" stroke-dasharray="5,2" d="M377.5,-779.5C377.5,-779.5 234.5,-779.5 234.5,-779.5 228.5,-779.5 222.5,-773.5 222.5,-767.5 222.5,-767.5 222.5,-746.5 222.5,-746.5 222.5,-740.5 228.5,-734.5 234.5,-734.5 234.5,-734.5 377.5,-734.5 377.5,-734.5 383.5,-734.5 389.5,-740.5 389.5,-746.5 389.5,-746.5 389.5,-767.5 389.5,-767.5 389.5,-773.5 383.5,-779.5 377.5,-779.5"/>
<text text-anchor="start" x="244" y="-764.7" font-family="Helvetica,sans-Serif" font-weight="bold" font-size="11.00">Native iOS / Android</text>
<text text-anchor="start" x="235.5" y="-754.5" font-family="Helvetica,sans-Serif" font-size="10.00">future · SAME REST/JSON API</text>
<text text-anchor="start" x="250.5" y="-744.5" font-family="Helvetica,sans-Serif" font-size="10.00">(zero backend change)</text>
</g>
<!-- native&#45;&gt;dns -->
<g id="edge2" class="edge">
<title>native&#45;&gt;dns</title>
<path fill="none" stroke="#555555" stroke-width="1.2" stroke-dasharray="5,2" d="M293.46,-734.38C278.19,-708.07 252.43,-663.66 236.09,-635.51"/>
<polygon fill="#555555" stroke="#555555" stroke-width="1.2" points="238.98,-633.52 230.94,-626.63 232.93,-637.03 238.98,-633.52"/>
<text text-anchor="middle" x="272.5" y="-670.8" font-family="Helvetica,sans-Serif" font-size="9.00">HTTPS</text>
</g>
<!-- cf -->
<g id="node4" class="node">
<title>cf</title>
<path fill="#ffcc80" stroke="black" stroke-width="1.2" d="M280.5,-523C280.5,-523 161.5,-523 161.5,-523 155.5,-523 149.5,-517 149.5,-511 149.5,-511 149.5,-490 149.5,-490 149.5,-484 155.5,-478 161.5,-478 161.5,-478 280.5,-478 280.5,-478 286.5,-478 292.5,-484 292.5,-490 292.5,-490 292.5,-511 292.5,-511 292.5,-517 286.5,-523 280.5,-523"/>
<text text-anchor="start" x="172.5" y="-508.2" font-family="Helvetica,sans-Serif" font-weight="bold" font-size="11.00">CloudFront CDN</text>
<text text-anchor="start" x="162.5" y="-498" font-family="Helvetica,sans-Serif" font-size="10.00">TLS · brotli · edge cache</text>
<text text-anchor="start" x="174.5" y="-488" font-family="Helvetica,sans-Serif" font-size="10.00">path&#45;based routing</text>
</g>
<!-- dns&#45;&gt;cf -->
<g id="edge3" class="edge">
<title>dns&#45;&gt;cf</title>
<path fill="none" stroke="#555555" stroke-width="1.2" d="M221,-590.47C221,-575.13 221,-552.19 221,-533.45"/>
<polygon fill="#555555" stroke="#555555" stroke-width="1.2" points="224.5,-533.26 221,-523.26 217.5,-533.26 224.5,-533.26"/>
</g>
<!-- waf -->
<g id="node5" class="node">
<title>waf</title>
<path fill="#ffe0b2" stroke="black" stroke-width="1.2" d="M268.5,-395.5C268.5,-395.5 197.5,-395.5 197.5,-395.5 191.5,-395.5 185.5,-389.5 185.5,-383.5 185.5,-383.5 185.5,-371.5 185.5,-371.5 185.5,-365.5 191.5,-359.5 197.5,-359.5 197.5,-359.5 268.5,-359.5 268.5,-359.5 274.5,-359.5 280.5,-365.5 280.5,-371.5 280.5,-371.5 280.5,-383.5 280.5,-383.5 280.5,-389.5 274.5,-395.5 268.5,-395.5"/>
<text text-anchor="start" x="202.5" y="-380.2" font-family="Helvetica,sans-Serif" font-weight="bold" font-size="11.00">AWS WAF</text>
<text text-anchor="start" x="198.5" y="-370" font-family="Helvetica,sans-Serif" font-size="10.00">API protection</text>
</g>
<!-- cf&#45;&gt;waf -->
<g id="edge5" class="edge">
<title>cf&#45;&gt;waf</title>
<path fill="none" stroke="#7b1fa2" stroke-width="1.8" d="M223.15,-477.87C225.14,-457.75 228.12,-427.68 230.28,-405.89"/>
<polygon fill="#7b1fa2" stroke="#7b1fa2" stroke-width="1.8" points="233.8,-405.94 231.3,-395.65 226.83,-405.25 233.8,-405.94"/>
<text text-anchor="start" x="227" y="-439.8" font-family="Helvetica,sans-Serif" font-size="9.00" fill="#7b1fa2">/v1/* </text>
</g>
<!-- s3app -->
<g id="node6" class="node">
<title>s3app</title>
<path fill="#c8e6c9" stroke="black" stroke-width="1.2" d="M1105,-395.5C1105,-395.5 1009,-395.5 1009,-395.5 1003,-395.5 997,-389.5 997,-383.5 997,-383.5 997,-371.5 997,-371.5 997,-365.5 1003,-359.5 1009,-359.5 1009,-359.5 1105,-359.5 1105,-359.5 1111,-359.5 1117,-365.5 1117,-371.5 1117,-371.5 1117,-383.5 1117,-383.5 1117,-389.5 1111,-395.5 1105,-395.5"/>
<text text-anchor="start" x="1022.5" y="-380.2" font-family="Helvetica,sans-Serif" font-weight="bold" font-size="11.00">App bundle</text>
<text text-anchor="start" x="1010" y="-370" font-family="Helvetica,sans-Serif" font-size="10.00">JS / CSS / PWA shell</text>
</g>
<!-- cf&#45;&gt;s3app -->
<g id="edge4" class="edge">
<title>cf&#45;&gt;s3app</title>
<path fill="none" stroke="#2e7d32" stroke-width="2.4" d="M292.59,-492.87C466.12,-476.79 900.21,-436.58 971.9,-429.94"/>
<polygon fill="#2e7d32" stroke="#2e7d32" stroke-width="2.4" points="972.37,-433.41 982,-429 971.72,-426.44 972.37,-433.41"/>
<text text-anchor="start" x="887" y="-440.8" font-family="Helvetica,sans-Serif" font-weight="bold" font-size="9.00" fill="#2e7d32">static · cached · no server</text>
</g>
<!-- apigw -->
<g id="node11" class="node">
<title>apigw</title>
<path fill="#e1bee7" stroke="black" stroke-width="1.2" d="M694,-286C694,-286 592,-286 592,-286 586,-286 580,-280 580,-274 580,-274 580,-253 580,-253 580,-247 586,-241 592,-241 592,-241 694,-241 694,-241 700,-241 706,-247 706,-253 706,-253 706,-274 706,-274 706,-280 700,-286 694,-286"/>
<text text-anchor="start" x="603.5" y="-271.2" font-family="Helvetica,sans-Serif" font-weight="bold" font-size="11.00">API Gateway</text>
<text text-anchor="start" x="593" y="-261" font-family="Helvetica,sans-Serif" font-size="10.00">REST /v1 · versioned</text>
<text text-anchor="start" x="599" y="-251" font-family="Helvetica,sans-Serif" font-size="10.00">platform&#45;agnostic</text>
</g>
<!-- waf&#45;&gt;apigw -->
<g id="edge6" class="edge">
<title>waf&#45;&gt;apigw</title>
<path fill="none" stroke="#7b1fa2" stroke-width="1.8" d="M272.56,-359.34C287.52,-352.85 301,-347 301,-347 301,-347 469.64,-306.32 570.08,-282.09"/>
<polygon fill="#7b1fa2" stroke="#7b1fa2" stroke-width="1.8" points="570.97,-285.48 579.87,-279.73 569.33,-278.67 570.97,-285.48"/>
</g>
<!-- s3content -->
<g id="node7" class="node">
<title>s3content</title>
<path fill="#c8e6c9" stroke="black" stroke-width="1.2" d="M1305,-395.5C1305,-395.5 1161,-395.5 1161,-395.5 1155,-395.5 1149,-389.5 1149,-383.5 1149,-383.5 1149,-371.5 1149,-371.5 1149,-365.5 1155,-359.5 1161,-359.5 1161,-359.5 1305,-359.5 1305,-359.5 1311,-359.5 1317,-365.5 1317,-371.5 1317,-371.5 1317,-383.5 1317,-383.5 1317,-389.5 1311,-395.5 1305,-395.5"/>
<text text-anchor="start" x="1208.5" y="-380.2" font-family="Helvetica,sans-Serif" font-weight="bold" font-size="11.00">Content</text>
<text text-anchor="start" x="1162" y="-370" font-family="Helvetica,sans-Serif" font-size="10.00">brotli JSON: catalog + stories</text>
</g>
<!-- s3tiles -->
<g id="node8" class="node">
<title>s3tiles</title>
<path fill="#c8e6c9" stroke="black" stroke-width="1.2" d="M953.5,-395.5C953.5,-395.5 790.5,-395.5 790.5,-395.5 784.5,-395.5 778.5,-389.5 778.5,-383.5 778.5,-383.5 778.5,-371.5 778.5,-371.5 778.5,-365.5 784.5,-359.5 790.5,-359.5 790.5,-359.5 953.5,-359.5 953.5,-359.5 959.5,-359.5 965.5,-365.5 965.5,-371.5 965.5,-371.5 965.5,-383.5 965.5,-383.5 965.5,-389.5 959.5,-395.5 953.5,-395.5"/>
<text text-anchor="start" x="828" y="-380.2" font-family="Helvetica,sans-Serif" font-weight="bold" font-size="11.00">Basemap tiles</text>
<text text-anchor="start" x="791.5" y="-370" font-family="Helvetica,sans-Serif" font-size="10.00">PMTiles vector + holy&#45;site raster</text>
</g>
<!-- s3models -->
<g id="node9" class="node">
<title>s3models</title>
<path fill="#c8e6c9" stroke="black" stroke-width="1.2" d="M734.5,-395.5C734.5,-395.5 529.5,-395.5 529.5,-395.5 523.5,-395.5 517.5,-389.5 517.5,-383.5 517.5,-383.5 517.5,-371.5 517.5,-371.5 517.5,-365.5 523.5,-359.5 529.5,-359.5 529.5,-359.5 734.5,-359.5 734.5,-359.5 740.5,-359.5 746.5,-365.5 746.5,-371.5 746.5,-371.5 746.5,-383.5 746.5,-383.5 746.5,-389.5 740.5,-395.5 734.5,-395.5"/>
<text text-anchor="start" x="596.5" y="-380.2" font-family="Helvetica,sans-Serif" font-weight="bold" font-size="11.00">3D + media</text>
<text text-anchor="start" x="530.5" y="-370" font-family="Helvetica,sans-Serif" font-size="10.00">GLB (Draco/KTX2) LODs · img/audio/video</text>
</g>
<!-- s3index -->
<g id="node10" class="node">
<title>s3index</title>
<path fill="#c8e6c9" stroke="black" stroke-width="1.2" d="M473,-400C473,-400 329,-400 329,-400 323,-400 317,-394 317,-388 317,-388 317,-367 317,-367 317,-361 323,-355 329,-355 329,-355 473,-355 473,-355 479,-355 485,-361 485,-367 485,-367 485,-388 485,-388 485,-394 479,-400 473,-400"/>
<text text-anchor="start" x="361" y="-385.2" font-family="Helvetica,sans-Serif" font-weight="bold" font-size="11.00">Search index</text>
<text text-anchor="start" x="330" y="-375" font-family="Helvetica,sans-Serif" font-size="10.00">prebuilt client index (Orama)</text>
<text text-anchor="start" x="342.5" y="-365" font-family="Helvetica,sans-Serif" font-size="10.00">offline metadata search</text>
</g>
<!-- lambda -->
<g id="node12" class="node">
<title>lambda</title>
<path fill="#e1bee7" stroke="black" stroke-width="1.2" d="M701,-169C701,-169 591,-169 591,-169 585,-169 579,-163 579,-157 579,-157 579,-136 579,-136 579,-130 585,-124 591,-124 591,-124 701,-124 701,-124 707,-124 713,-130 713,-136 713,-136 713,-157 713,-157 713,-163 707,-169 701,-169"/>
<text text-anchor="start" x="621.5" y="-154.2" font-family="Helvetica,sans-Serif" font-weight="bold" font-size="11.00">Lambda</text>
<text text-anchor="start" x="592" y="-144" font-family="Helvetica,sans-Serif" font-size="10.00">deep/semantic search</text>
<text text-anchor="start" x="600" y="-134" font-family="Helvetica,sans-Serif" font-size="10.00">+ future endpoints</text>
</g>
<!-- apigw&#45;&gt;lambda -->
<g id="edge7" class="edge">
<title>apigw&#45;&gt;lambda</title>
<path fill="none" stroke="#7b1fa2" stroke-width="1.8" d="M643.56,-240.87C644.02,-223.44 644.66,-198.69 645.18,-179.05"/>
<polygon fill="#7b1fa2" stroke="#7b1fa2" stroke-width="1.8" points="648.68,-179.12 645.44,-169.03 641.68,-178.94 648.68,-179.12"/>
</g>
<!-- cognito -->
<g id="node15" class="node">
<title>cognito</title>
<path fill="#f5eaf8" stroke="black" stroke-width="1.2" stroke-dasharray="5,2" d="M899,-164.5C899,-164.5 757,-164.5 757,-164.5 751,-164.5 745,-158.5 745,-152.5 745,-152.5 745,-140.5 745,-140.5 745,-134.5 751,-128.5 757,-128.5 757,-128.5 899,-128.5 899,-128.5 905,-128.5 911,-134.5 911,-140.5 911,-140.5 911,-152.5 911,-152.5 911,-158.5 905,-164.5 899,-164.5"/>
<text text-anchor="start" x="804" y="-149.2" font-family="Helvetica,sans-Serif" font-weight="bold" font-size="11.00">Cognito</text>
<text text-anchor="start" x="758" y="-139" font-family="Helvetica,sans-Serif" font-size="10.00">auth for contributors (future)</text>
</g>
<!-- apigw&#45;&gt;cognito -->
<g id="edge10" class="edge">
<title>apigw&#45;&gt;cognito</title>
<path fill="none" stroke="#9e9e9e" stroke-width="1.2" stroke-dasharray="5,2" d="M677.8,-240.87C710.33,-220.65 758.71,-190.57 791.71,-170.06"/>
<polygon fill="#9e9e9e" stroke="#9e9e9e" stroke-width="1.2" points="793.94,-172.79 800.58,-164.54 790.24,-166.85 793.94,-172.79"/>
<text text-anchor="middle" x="764" y="-202.8" font-family="Helvetica,sans-Serif" font-size="9.00">authorizer</text>
</g>
<!-- cw -->
<g id="node20" class="node">
<title>cw</title>
<path fill="#eceff1" stroke="#b0bec5" stroke-width="1.2" d="M542,-52C542,-52 466,-52 466,-52 460,-52 454,-46 454,-40 454,-40 454,-28 454,-28 454,-22 460,-16 466,-16 466,-16 542,-16 542,-16 548,-16 554,-22 554,-28 554,-28 554,-40 554,-40 554,-46 548,-52 542,-52"/>
<text text-anchor="start" x="467" y="-36.7" font-family="Helvetica,sans-Serif" font-weight="bold" font-size="11.00">CloudWatch</text>
<text text-anchor="start" x="470.5" y="-26.5" font-family="Helvetica,sans-Serif" font-size="10.00">logs · metrics</text>
</g>
<!-- apigw&#45;&gt;cw -->
<g id="edge17" class="edge">
<title>apigw&#45;&gt;cw</title>
<path fill="none" stroke="#9e9e9e" stroke-width="1.2" stroke-dasharray="1,5" d="M624.45,-240.81C600.81,-213.19 563,-169 563,-169 563,-169 527.53,-88.44 511.59,-52.24"/>
</g>
<!-- oss -->
<g id="node13" class="node">
<title>oss</title>
<path fill="#e1bee7" stroke="black" stroke-width="1.2" d="M971.5,-52C971.5,-52 824.5,-52 824.5,-52 818.5,-52 812.5,-46 812.5,-40 812.5,-40 812.5,-28 812.5,-28 812.5,-22 818.5,-16 824.5,-16 824.5,-16 971.5,-16 971.5,-16 977.5,-16 983.5,-22 983.5,-28 983.5,-28 983.5,-40 983.5,-40 983.5,-46 977.5,-52 971.5,-52"/>
<text text-anchor="start" x="825.5" y="-36.7" font-family="Helvetica,sans-Serif" font-weight="bold" font-size="11.00">OpenSearch Serverless</text>
<text text-anchor="start" x="828" y="-26.5" font-family="Helvetica,sans-Serif" font-size="10.00">full&#45;text + vector (semantic)</text>
</g>
<!-- lambda&#45;&gt;oss -->
<g id="edge8" class="edge">
<title>lambda&#45;&gt;oss</title>
<path fill="none" stroke="#7b1fa2" stroke-width="1.8" d="M695.19,-123.93C739.76,-104.39 805.06,-75.75 849.44,-56.29"/>
<polygon fill="#7b1fa2" stroke="#7b1fa2" stroke-width="1.8" points="851.1,-59.39 858.85,-52.17 848.29,-52.98 851.1,-59.39"/>
<text text-anchor="middle" x="800.5" y="-85.8" font-family="Helvetica,sans-Serif" font-size="9.00">query</text>
</g>
<!-- ddb -->
<g id="node14" class="node">
<title>ddb</title>
<path fill="#f5eaf8" stroke="black" stroke-width="1.2" stroke-dasharray="5,2" d="M768,-52C768,-52 598,-52 598,-52 592,-52 586,-46 586,-40 586,-40 586,-28 586,-28 586,-22 592,-16 598,-16 598,-16 768,-16 768,-16 774,-16 780,-22 780,-28 780,-28 780,-40 780,-40 780,-46 774,-52 768,-52"/>
<text text-anchor="start" x="649" y="-36.7" font-family="Helvetica,sans-Serif" font-weight="bold" font-size="11.00">DynamoDB</text>
<text text-anchor="start" x="599" y="-26.5" font-family="Helvetica,sans-Serif" font-size="10.00">bookmarks / contributions (future)</text>
</g>
<!-- lambda&#45;&gt;ddb -->
<g id="edge9" class="edge">
<title>lambda&#45;&gt;ddb</title>
<path fill="none" stroke="#9e9e9e" stroke-width="1.2" stroke-dasharray="5,2" d="M653.22,-123.93C659.18,-106.15 667.65,-80.84 674.04,-61.77"/>
<polygon fill="#9e9e9e" stroke="#9e9e9e" stroke-width="1.2" points="677.4,-62.76 677.25,-52.17 670.76,-60.54 677.4,-62.76"/>
</g>
<!-- lambda&#45;&gt;cw -->
<g id="edge16" class="edge">
<title>lambda&#45;&gt;cw</title>
<path fill="none" stroke="#9e9e9e" stroke-width="1.2" stroke-dasharray="1,5" d="M618.28,-123.93C591.33,-102.95 550.91,-71.5 526.06,-52.17"/>
</g>
<!-- gh -->
<g id="node16" class="node">
<title>gh</title>
<path fill="#cfd8dc" stroke="black" stroke-width="1.2" d="M1594.5,-631C1594.5,-631 1427.5,-631 1427.5,-631 1421.5,-631 1415.5,-625 1415.5,-619 1415.5,-619 1415.5,-598 1415.5,-598 1415.5,-592 1421.5,-586 1427.5,-586 1427.5,-586 1594.5,-586 1594.5,-586 1600.5,-586 1606.5,-592 1606.5,-598 1606.5,-598 1606.5,-619 1606.5,-619 1606.5,-625 1600.5,-631 1594.5,-631"/>
<text text-anchor="start" x="1474" y="-616.2" font-family="Helvetica,sans-Serif" font-weight="bold" font-size="11.00">GitHub repo</text>
<text text-anchor="start" x="1428.5" y="-606" font-family="Helvetica,sans-Serif" font-size="10.00">AI&#45;authored JSON + JSON Schema</text>
<text text-anchor="start" x="1461" y="-596" font-family="Helvetica,sans-Serif" font-size="10.00">scholar review (PRs)</text>
</g>
<!-- ci -->
<g id="node17" class="node">
<title>ci</title>
<path fill="#cfd8dc" stroke="black" stroke-width="1.2" d="M1583.5,-518.5C1583.5,-518.5 1438.5,-518.5 1438.5,-518.5 1432.5,-518.5 1426.5,-512.5 1426.5,-506.5 1426.5,-506.5 1426.5,-494.5 1426.5,-494.5 1426.5,-488.5 1432.5,-482.5 1438.5,-482.5 1438.5,-482.5 1583.5,-482.5 1583.5,-482.5 1589.5,-482.5 1595.5,-488.5 1595.5,-494.5 1595.5,-494.5 1595.5,-506.5 1595.5,-506.5 1595.5,-512.5 1589.5,-518.5 1583.5,-518.5"/>
<text text-anchor="start" x="1440.5" y="-503.2" font-family="Helvetica,sans-Serif" font-weight="bold" font-size="11.00">CodeBuild / GH Actions</text>
<text text-anchor="start" x="1439.5" y="-493" font-family="Helvetica,sans-Serif" font-size="10.00">validate → compile → publish</text>
</g>
<!-- gh&#45;&gt;ci -->
<g id="edge11" class="edge">
<title>gh&#45;&gt;ci</title>
<path fill="none" stroke="#555555" stroke-width="1.2" d="M1511,-585.79C1511,-569.34 1511,-546.62 1511,-528.91"/>
<polygon fill="#555555" stroke="#555555" stroke-width="1.2" points="1514.5,-528.64 1511,-518.64 1507.5,-528.64 1514.5,-528.64"/>
</g>
<!-- ci&#45;&gt;s3content -->
<g id="edge14" class="edge">
<title>ci&#45;&gt;s3content</title>
<path fill="none" stroke="#607d8b" stroke-width="1.8" stroke-dasharray="5,2" d="M1428.21,-482.45C1353.75,-467.13 1256,-447 1256,-447 1256,-447 1254.88,-443.67 1253.14,-438.48"/>
<polygon fill="#607d8b" stroke="#607d8b" stroke-width="1.8" points="1256.46,-437.36 1249.95,-429 1249.82,-439.59 1256.46,-437.36"/>
<text text-anchor="start" x="1256" y="-440.8" font-family="Helvetica,sans-Serif" font-weight="bold" font-size="9.00" fill="#607d8b">publish artifacts</text>
</g>
<!-- ci&#45;&gt;oss -->
<g id="edge15" class="edge">
<title>ci&#45;&gt;oss</title>
<path fill="none" stroke="#607d8b" stroke-width="1.6" stroke-dasharray="5,2" d="M1484.13,-482.43C1451.28,-461.57 1400,-429 1400,-429 1400,-429 1366,-378.5 1366,-378.5 1366,-378.5 1366,-378.5 1366,-145.5 1366,-145.5 1114.14,-86.03 979.95,-54.35"/>
<polygon fill="#607d8b" stroke="#607d8b" stroke-width="1.6" points="980.64,-50.92 970.1,-52.02 979.03,-57.73 980.64,-50.92"/>
<text text-anchor="middle" x="1414" y="-261.3" font-family="Helvetica,sans-Serif" font-size="9.00">index docs + vectors</text>
</g>
<!-- tools -->
<g id="node18" class="node">
<title>tools</title>
<path fill="#cfd8dc" stroke="black" stroke-width="1.2" d="M1596.5,-400C1596.5,-400 1427.5,-400 1427.5,-400 1421.5,-400 1415.5,-394 1415.5,-388 1415.5,-388 1415.5,-367 1415.5,-367 1415.5,-361 1421.5,-355 1427.5,-355 1427.5,-355 1596.5,-355 1596.5,-355 1602.5,-355 1608.5,-361 1608.5,-367 1608.5,-367 1608.5,-388 1608.5,-388 1608.5,-394 1602.5,-400 1596.5,-400"/>
<text text-anchor="start" x="1481" y="-385.2" font-family="Helvetica,sans-Serif" font-weight="bold" font-size="11.00">Compilers</text>
<text text-anchor="start" x="1460.5" y="-375" font-family="Helvetica,sans-Serif" font-size="10.00">tippecanoe (PMTiles)</text>
<text text-anchor="start" x="1428.5" y="-365" font-family="Helvetica,sans-Serif" font-size="10.00">gltf&#45;transform · search&#45;index build</text>
</g>
<!-- ci&#45;&gt;tools -->
<g id="edge12" class="edge">
<title>ci&#45;&gt;tools</title>
<path fill="none" stroke="#555555" stroke-width="1.2" d="M1511.23,-472.22C1511.38,-453.91 1511.58,-429.72 1511.74,-410.5"/>
<polygon fill="#555555" stroke="#555555" stroke-width="1.2" points="1507.72,-472.39 1511.14,-482.42 1514.72,-472.45 1507.72,-472.39"/>
<polygon fill="#555555" stroke="#555555" stroke-width="1.2" points="1515.24,-410.44 1511.82,-400.41 1508.24,-410.38 1515.24,-410.44"/>
</g>
<!-- bedrock -->
<g id="node19" class="node">
<title>bedrock</title>
<path fill="#cfd8dc" stroke="black" stroke-width="1.2" d="M1775.5,-395.5C1775.5,-395.5 1652.5,-395.5 1652.5,-395.5 1646.5,-395.5 1640.5,-389.5 1640.5,-383.5 1640.5,-383.5 1640.5,-371.5 1640.5,-371.5 1640.5,-365.5 1646.5,-359.5 1652.5,-359.5 1652.5,-359.5 1775.5,-359.5 1775.5,-359.5 1781.5,-359.5 1787.5,-365.5 1787.5,-371.5 1787.5,-371.5 1787.5,-383.5 1787.5,-383.5 1787.5,-389.5 1781.5,-395.5 1775.5,-395.5"/>
<text text-anchor="start" x="1688.5" y="-380.2" font-family="Helvetica,sans-Serif" font-weight="bold" font-size="11.00">Bedrock</text>
<text text-anchor="start" x="1653.5" y="-370" font-family="Helvetica,sans-Serif" font-size="10.00">embeddings (build&#45;time)</text>
</g>
<!-- ci&#45;&gt;bedrock -->
<g id="edge13" class="edge">
<title>ci&#45;&gt;bedrock</title>
<path fill="none" stroke="#555555" stroke-width="1.2" d="M1539.65,-482.42C1575.37,-461.13 1636.52,-424.68 1676.09,-401.1"/>
<polygon fill="#555555" stroke="#555555" stroke-width="1.2" points="1678.37,-403.81 1685.16,-395.69 1674.78,-397.8 1678.37,-403.81"/>
<text text-anchor="middle" x="1629" y="-439.8" font-family="Helvetica,sans-Serif" font-size="9.00">vectors</text>
</g>
<!-- legend -->
<g id="node21" class="node">
<title>legend</title>
<text text-anchor="start" x="893" y="-785.2" font-family="Helvetica,sans-Serif" font-weight="bold" font-size="11.00" fill="#2e7d32">——</text>
<text text-anchor="start" x="924" y="-784.2" font-family="Helvetica,sans-Serif" font-size="11.00">static, CDN&#45;cached, works offline / low&#45;bandwidth (no server)</text>
<text text-anchor="start" x="893" y="-765.2" font-family="Helvetica,sans-Serif" font-weight="bold" font-size="11.00" fill="#7b1fa2">——</text>
<text text-anchor="start" x="924" y="-764.2" font-family="Helvetica,sans-Serif" font-size="11.00">serverless, online&#45;only (deep / semantic search)</text>
<text text-anchor="start" x="893.5" y="-745.2" font-family="Helvetica,sans-Serif" font-weight="bold" font-size="11.00" fill="#607d8b">&#45; &#45; &#45;</text>
<text text-anchor="start" x="924" y="-744.2" font-family="Helvetica,sans-Serif" font-size="11.00">build pipeline (publishes artifacts &amp; search index)</text>
<text text-anchor="start" x="893.5" y="-725.2" font-family="Helvetica,sans-Serif" font-weight="bold" font-size="11.00" fill="#9e9e9e">&#45; &#45; &#45;</text>
<text text-anchor="start" x="924" y="-724.2" font-family="Helvetica,sans-Serif" font-size="11.00">future / optional (no always&#45;on servers anywhere)</text>
</g>
</g>
</svg>
